<svg xmlns="http://www.w3.org/2000/svg" viewBox="1147.611 438 151.161 145.283">
  <defs>
    <style>
      .cls-1 {
        fill: #e9cfdc;
      }

      .cls-1, .cls-16, .cls-18, .cls-5, .cls-6, .cls-7, .cls-8 {
        fill-rule: evenodd;
      }

      .cls-2, .cls-4 {
        fill: #a4dce8;
      }

      .cls-2 {
        stroke: #f8961d;
        stroke-miterlimit: 10;
        stroke-width: 1.366px;
      }

      .cls-3 {
        fill: #f8961d;
      }

      .cls-5 {
        fill: #fff;
        opacity: 0.6;
      }

      .cls-6 {
        fill: #f6893a;
      }

      .cls-7 {
        fill: #ffca19;
      }

      .cls-8 {
        fill: #d05e27;
      }

      .cls-9 {
        fill: #fece47;
      }

      .cls-10 {
        fill: #d15727;
      }

      .cls-11 {
        fill: #92ca62;
      }

      .cls-12 {
        fill: #77c150;
      }

      .cls-13 {
        fill: #b3d78c;
      }

      .cls-14 {
        fill: #db72a6;
      }

      .cls-15 {
        fill: #a4577c;
      }

      .cls-16 {
        fill: #f16266;
      }

      .cls-17 {
        fill: #ffe319;
      }

      .cls-18 {
        fill: #ef3e45;
      }
    </style>
  </defs>
  <g id="Group_30" data-name="Group 30" transform="translate(1147.611 438)">
    <path id="XMLID_29_" class="cls-1" d="M11.711,24.8H133.356a5.126,5.126,0,0,1,5.111,5.111V133.283a5.126,5.126,0,0,1-5.111,5.111H11.711A5.126,5.126,0,0,1,6.6,133.283V29.911A5.126,5.126,0,0,1,11.711,24.8Z" transform="translate(1.833 6.889)"/>
    <rect id="XMLID_28_" class="cls-2" width="110.911" height="61.717" transform="translate(18.783 57.756)"/>
    <rect id="XMLID_27_" class="cls-3" width="46.128" height="73.089" transform="translate(18.017 69.639)"/>
    <rect id="XMLID_26_" class="cls-4" width="42.422" height="71.044" transform="translate(19.933 71.556)"/>
    <path id="XMLID_25_" class="cls-5" d="M89.162,52.976h0a2.015,2.015,0,0,1,.639,2.683L70.379,86.709a2.015,2.015,0,0,1-2.683.639h0a2.015,2.015,0,0,1-.639-2.683l19.422-31.05A1.807,1.807,0,0,1,89.162,52.976Z" transform="translate(18.554 14.619)"/>
    <path id="XMLID_24_" class="cls-5" d="M78.329,56.857h0a2.015,2.015,0,0,1,.639,2.683L70.279,73.468a2.015,2.015,0,0,1-2.683.639h0a2.015,2.015,0,0,1-.639-2.683L75.646,57.5A1.983,1.983,0,0,1,78.329,56.857Z" transform="translate(18.527 15.721)"/>
    <path id="XMLID_23_" class="cls-5" d="M90.451,58.757h0a2.015,2.015,0,0,1,.639,2.683l-14.311,23a2.015,2.015,0,0,1-2.683.639h0a2.015,2.015,0,0,1-.639-2.683l14.311-23A2.015,2.015,0,0,1,90.451,58.757Z" transform="translate(20.332 16.249)"/>
    <path id="XMLID_22_" class="cls-5" d="M42.1,61.944h0a1.54,1.54,0,0,1,.511,2.172L26.641,89.8a1.54,1.54,0,0,1-2.172.511h0a1.54,1.54,0,0,1-.511-2.172L39.93,62.583A1.531,1.531,0,0,1,42.1,61.944Z" transform="translate(6.581 17.15)"/>
    <path id="XMLID_21_" class="cls-5" d="M33.186,65.258h0A1.54,1.54,0,0,1,33.7,67.43L26.541,78.8a1.54,1.54,0,0,1-2.172.511h0a1.54,1.54,0,0,1-.511-2.172l7.156-11.372A1.5,1.5,0,0,1,33.186,65.258Z" transform="translate(6.553 18.053)"/>
    <path id="XMLID_20_" class="cls-5" d="M43.086,66.746h0a1.54,1.54,0,0,1,.511,2.172L31.841,87.829a1.54,1.54,0,0,1-2.172.511h0a1.54,1.54,0,0,1-.511-2.172L40.913,67.257A1.658,1.658,0,0,1,43.086,66.746Z" transform="translate(8.026 18.482)"/>
    <path id="XMLID_19_" class="cls-6" d="M11.244,0H139.917l11.244,49.706H0Z"/>
    <path id="XMLID_18_" class="cls-7" d="M28.928,0h81.139l7.028,49.706H21.9Z" transform="translate(6.083)"/>
    <path id="XMLID_17_" class="cls-8" d="M50.944,0H73.178l1.917,49.706H48.9Z" transform="translate(13.583)"/>
    <rect id="Rectangle_1" data-name="Rectangle 1" class="cls-9" width="42.422" height="29.9" transform="translate(19.933 112.572)"/>
    <path id="Path_26" data-name="Path 26" class="cls-10" d="M51.35,91.133H21.067a.824.824,0,0,1-.767-.767h0a.824.824,0,0,1,.767-.767H51.35a.824.824,0,0,1,.767.767h0A.824.824,0,0,1,51.35,91.133Z" transform="translate(5.639 24.889)"/>
    <g id="Group_29" data-name="Group 29" transform="translate(67.114 107.789)">
      <g id="Group_15" data-name="Group 15" transform="translate(0 6.956)">
        <g id="Group_14" data-name="Group 14">
          <path id="Path_27" data-name="Path 27" class="cls-11" d="M58.983,101.556h0a.339.339,0,0,1-.383-.383V90.183a.339.339,0,0,1,.383-.383h0a.339.339,0,0,1,.383.383v10.989A.339.339,0,0,1,58.983,101.556Z" transform="translate(-50.837 -89.8)"/>
          <g id="Group_13" data-name="Group 13" transform="translate(0 7.667)">
            <path id="Path_28" data-name="Path 28" class="cls-12" d="M60.154,105.677h0a3.124,3.124,0,0,1-1.278-4.217l2.044-3.706a3.124,3.124,0,0,1,4.217-1.278h0a3.124,3.124,0,0,1,1.278,4.217L64.371,104.4A3.159,3.159,0,0,1,60.154,105.677Z" transform="translate(-50.858 -95.71)"/>
            <path id="Path_29" data-name="Path 29" class="cls-13" d="M59.138,105.677h0a3.124,3.124,0,0,0,1.278-4.217l-2.044-3.706a3.124,3.124,0,0,0-4.217-1.278h0a3.124,3.124,0,0,0-1.278,4.217l2.044,3.706A3.124,3.124,0,0,0,59.138,105.677Z" transform="translate(-52.524 -95.71)"/>
            <path id="Path_30" data-name="Path 30" class="cls-11" d="M59.367,106.15h0a3.109,3.109,0,0,1-3.067-3.067V98.867A3.109,3.109,0,0,1,59.367,95.8h0a3.109,3.109,0,0,1,3.067,3.067v4.217A3.109,3.109,0,0,1,59.367,106.15Z" transform="translate(-51.476 -95.8)"/>
          </g>
        </g>
        <path id="Path_31" data-name="Path 31" class="cls-14" d="M66.728,115.161H54.972L52.8,99.7H68.261Z" transform="translate(-52.448 -87.05)"/>
      </g>
      <g id="Group_18" data-name="Group 18" transform="translate(37.183 6.828)">
        <g id="Group_17" data-name="Group 17">
          <path id="Path_32" data-name="Path 32" class="cls-11" d="M88.183,101.456h0a.339.339,0,0,1-.383-.383V90.083a.339.339,0,0,1,.383-.383h0a.339.339,0,0,1,.383.383v10.989A.408.408,0,0,1,88.183,101.456Z" transform="translate(-79.909 -89.7)"/>
          <g id="Group_16" data-name="Group 16" transform="translate(0 7.794)">
            <path id="Path_33" data-name="Path 33" class="cls-12" d="M89.254,105.577h0a3.124,3.124,0,0,1-1.278-4.217l2.044-3.706a3.124,3.124,0,0,1,4.217-1.278h0a3.124,3.124,0,0,1,1.278,4.217L93.471,104.3A3.019,3.019,0,0,1,89.254,105.577Z" transform="translate(-79.958 -95.738)"/>
            <path id="Path_34" data-name="Path 34" class="cls-13" d="M88.238,105.577h0a3.124,3.124,0,0,0,1.278-4.217l-2.044-3.706a3.124,3.124,0,0,0-4.217-1.278h0a3.124,3.124,0,0,0-1.278,4.217l2.044,3.706A3.049,3.049,0,0,0,88.238,105.577Z" transform="translate(-81.624 -95.738)"/>
            <path id="Path_35" data-name="Path 35" class="cls-11" d="M88.467,106.15h0a3.109,3.109,0,0,1-3.067-3.067V98.867A3.109,3.109,0,0,1,88.467,95.8h0a3.109,3.109,0,0,1,3.067,3.067v4.217A3.109,3.109,0,0,1,88.467,106.15Z" transform="translate(-80.576 -95.8)"/>
          </g>
        </g>
        <path id="Path_36" data-name="Path 36" class="cls-14" d="M95.8,115.061H84.172L82,99.6H97.461Z" transform="translate(-81.52 -86.95)"/>
      </g>
      <g id="Group_21" data-name="Group 21" transform="translate(55.399 5.806)">
        <g id="Group_20" data-name="Group 20">
          <path id="Path_37" data-name="Path 37" class="cls-11" d="M102.483,101.167h0a.339.339,0,0,1-.383-.383v-11.5a.339.339,0,0,1,.383-.383h0a.339.339,0,0,1,.383.383v11.5A.576.576,0,0,1,102.483,101.167Z" transform="translate(-94.152 -88.9)"/>
          <g id="Group_19" data-name="Group 19" transform="translate(0 8.178)">
            <path id="Path_38" data-name="Path 38" class="cls-12" d="M103.867,105.672h0a3.194,3.194,0,0,1-1.278-4.344l2.172-3.961a3.194,3.194,0,0,1,4.344-1.278h0a3.194,3.194,0,0,1,1.278,4.344l-2.172,3.961A3.275,3.275,0,0,1,103.867,105.672Z" transform="translate(-94.13 -95.194)"/>
            <path id="Path_39" data-name="Path 39" class="cls-13" d="M102.806,105.672h0a3.194,3.194,0,0,0,1.278-4.344l-2.172-3.961a3.194,3.194,0,0,0-4.344-1.278h0a3.194,3.194,0,0,0-1.278,4.344l2.172,3.961A3.239,3.239,0,0,0,102.806,105.672Z" transform="translate(-95.88 -95.194)"/>
            <path id="Path_40" data-name="Path 40" class="cls-11" d="M102.994,106.161h0a3.163,3.163,0,0,1-3.194-3.194V98.494a3.163,3.163,0,0,1,3.194-3.194h0a3.163,3.163,0,0,1,3.194,3.194v4.472A3.163,3.163,0,0,1,102.994,106.161Z" transform="translate(-94.791 -95.3)"/>
          </g>
        </g>
        <path id="Path_41" data-name="Path 41" class="cls-15" d="M110.228,115.061H98.472L96.3,99.6h15.461Z" transform="translate(-95.763 -85.928)"/>
      </g>
      <g id="Group_24" data-name="Group 24" transform="translate(18.343 5.806)">
        <g id="Group_23" data-name="Group 23">
          <path id="Path_42" data-name="Path 42" class="cls-11" d="M73.383,101.167h0a.339.339,0,0,1-.383-.383v-11.5a.339.339,0,0,1,.383-.383h0a.339.339,0,0,1,.383.383v11.5A.408.408,0,0,1,73.383,101.167Z" transform="translate(-65.18 -88.9)"/>
          <g id="Group_22" data-name="Group 22" transform="translate(0 8.178)">
            <path id="Path_43" data-name="Path 43" class="cls-12" d="M74.767,105.672h0a3.194,3.194,0,0,1-1.278-4.344l2.044-3.961a3.194,3.194,0,0,1,4.344-1.278h0a3.194,3.194,0,0,1,1.278,4.344l-2.172,3.961A3.054,3.054,0,0,1,74.767,105.672Z" transform="translate(-65.158 -95.194)"/>
            <path id="Path_44" data-name="Path 44" class="cls-13" d="M73.678,105.672h0a3.194,3.194,0,0,0,1.278-4.344l-2.044-3.961a3.194,3.194,0,0,0-4.344-1.278h0a3.194,3.194,0,0,0-1.278,4.344l2.172,3.961A3.089,3.089,0,0,0,73.678,105.672Z" transform="translate(-66.88 -95.194)"/>
            <path id="Path_45" data-name="Path 45" class="cls-11" d="M73.894,106.161h0a3.163,3.163,0,0,1-3.194-3.194V98.494A3.163,3.163,0,0,1,73.894,95.3h0a3.163,3.163,0,0,1,3.194,3.194v4.472A3.087,3.087,0,0,1,73.894,106.161Z" transform="translate(-65.819 -95.3)"/>
          </g>
        </g>
        <path id="Path_46" data-name="Path 46" class="cls-15" d="M81.1,115.061H69.472L67.3,99.6H82.633Z" transform="translate(-66.763 -85.928)"/>
      </g>
      <g id="Group_25" data-name="Group 25" transform="translate(2.986 0.007)">
        <path id="XMLID_14_" class="cls-16" d="M54.911,87.605c.256-.639,1.278-.894,2.428-.511-.511-1.022-.383-2.172.128-2.428.639-.256,1.533.256,2.044,1.406.383-1.15,1.278-1.917,1.917-1.661s.894,1.278.511,2.428c1.022-.511,2.172-.383,2.428.128.256.639-.256,1.533-1.406,2.044,1.15.383,1.917,1.278,1.661,1.917s-1.278.894-2.428.511c.511,1.022.383,2.172-.128,2.428-.639.256-1.533-.256-2.044-1.406-.383,1.15-1.278,1.917-1.917,1.661s-.894-1.278-.511-2.428c-1.022.511-2.172.383-2.428-.128-.256-.639.256-1.533,1.406-2.044-1.15-.383-1.917-1.278-1.661-1.917Zm4.856.639c-.128.128-.128.256-.256.256s-.256.128-.383.128v.383c0,.128-.128.256-.256.383.128.128.256.128.256.256s.128.256.128.383h.383c.128,0,.256.128.383.256.128-.128.128-.256.256-.256s.256-.128.383-.128v-.383c0-.128.128-.256.256-.383-.128-.128-.256-.128-.256-.256s-.128-.256-.128-.383H60.15c-.256,0-.383-.128-.383-.256Z" transform="translate(-54.861 -84.361)"/>
        <circle id="XMLID_13_" class="cls-17" cx="1.917" cy="1.917" r="1.917" transform="translate(2.339 4.051) rotate(-26.45)"/>
      </g>
      <g id="Group_26" data-name="Group 26" transform="translate(21.635 0.128)">
        <path id="XMLID_10_" class="cls-18" d="M69.512,91.157c-.256-.639.383-1.533,1.533-1.917-1.15-.511-1.789-1.406-1.533-2.044s1.406-.767,2.428-.256c-.383-1.15-.256-2.172.383-2.428s1.533.383,1.917,1.533c.511-1.15,1.406-1.789,2.044-1.533s.767,1.406.256,2.428c1.15-.383,2.172-.256,2.428.383s-.383,1.533-1.533,1.917c1.15.511,1.789,1.406,1.533,2.044s-1.406.767-2.428.256c.383,1.15.256,2.172-.383,2.428s-1.533-.383-1.917-1.533c-.511,1.15-1.406,1.789-2.044,1.533s-.767-1.406-.256-2.428c-1.022.383-2.172.256-2.428-.383Zm4.217-2.683v.383a.275.275,0,0,1-.256.256c.128.128.128.256.256.256v.383h.383a.275.275,0,0,1,.256.256c.128-.128.256-.128.256-.256h.383v-.383a.275.275,0,0,1,.256-.256c-.128-.128-.128-.256-.256-.256v-.383h-.383a.275.275,0,0,1-.256-.256c-.128.128-.256.128-.256.256Z" transform="translate(-69.456 -84.456)"/>
        <circle id="XMLID_9_" class="cls-17" cx="1.917" cy="1.917" r="1.917" transform="matrix(0.394, -0.919, 0.919, 0.394, 2.401, 5.782)"/>
      </g>
      <g id="Group_27" data-name="Group 27" transform="translate(40.291)">
        <path id="XMLID_6_" class="cls-16" d="M84.112,91.312c-.256-.639.383-1.533,1.533-2.044-1.15-.511-1.789-1.278-1.533-1.917s1.406-.767,2.428-.383c-.511-1.15-.383-2.172.256-2.428s1.533.383,2.044,1.406c.511-1.15,1.278-1.789,1.917-1.533s.767,1.406.383,2.428c1.15-.511,2.172-.383,2.428.256s-.383,1.533-1.533,2.044c1.15.511,1.789,1.278,1.533,1.917s-1.406.767-2.428.383c.511,1.15.383,2.172-.256,2.428s-1.533-.383-2.044-1.406c-.511,1.15-1.278,1.789-1.917,1.533s-.767-1.406-.383-2.428c-1.022.511-2.044.383-2.428-.256ZM88.2,88.629v.383a.275.275,0,0,1-.256.256c.128.128.256.128.256.256s.128.256,0,.383h.383a.275.275,0,0,1,.256.256l.256-.256c.128,0,.256-.128.383,0v-.383a.275.275,0,0,1,.256-.256c-.128-.128-.256-.128-.256-.256s-.128-.256,0-.383H89.1a.275.275,0,0,1-.256-.256c-.128.128-.128.256-.256.256-.128-.128-.256,0-.383,0Z" transform="translate(-84.056 -84.356)"/>
        <circle id="XMLID_5_" class="cls-17" cx="1.917" cy="1.917" r="1.917" transform="translate(2.406 5.953) rotate(-68.456)"/>
      </g>
      <g id="Group_28" data-name="Group 28" transform="translate(58.825 0.134)">
        <path id="XMLID_2_" class="cls-18" d="M101.294,93.966c-.639-.256-.767-1.406-.256-2.428-1.15.383-2.172.256-2.428-.383s.511-1.533,1.533-1.917c-1.022-.511-1.789-1.406-1.406-2.044.256-.639,1.406-.767,2.428-.256-.383-1.15-.256-2.172.383-2.428s1.533.511,1.917,1.533c.511-1.022,1.406-1.789,2.044-1.406.639.256.767,1.406.256,2.428,1.15-.383,2.172-.256,2.428.383s-.511,1.533-1.533,1.917c1.022.511,1.789,1.406,1.406,2.044-.256.639-1.406.767-2.428.256.383,1.15.256,2.172-.383,2.428s-1.533-.511-1.917-1.533c-.511,1.022-1.406,1.661-2.044,1.406Zm1.15-4.728c.128.128.128.256.256.383v.383h.383a.275.275,0,0,1,.256.256c.128-.128.256-.128.383-.256h.383v-.383a.275.275,0,0,1,.256-.256c-.128-.128-.128-.256-.256-.383V88.6h-.383a.275.275,0,0,1-.256-.256c-.128.128-.256.128-.383.256H102.7v.383c-.128,0-.128.128-.256.256Z" transform="translate(-98.561 -84.461)"/>
        <circle id="XMLID_1_" class="cls-17" cx="1.917" cy="1.917" r="1.917" transform="translate(2.435 3.657) rotate(-20.903)"/>
      </g>
    </g>
  </g>
</svg>
