<svg xmlns="http://www.w3.org/2000/svg" viewBox="895.468 419 130.809 184.034">
  <defs>
    <style>
      .cls-1 {
        fill: #ef3a50;
      }

      .cls-2 {
        fill: #8ba13c;
      }

      .cls-3 {
        fill: #cc3535;
      }

      .cls-4 {
        fill: #4ea7ad;
      }

      .cls-5 {
        fill: #ffd85d;
      }

      .cls-6 {
        fill: #718d3b;
      }

      .cls-7 {
        fill: #e6eca4;
      }

      .cls-8 {
        fill: #57c7d9;
      }

      .cls-9 {
        fill: #2aace2;
      }
    </style>
  </defs>
  <g id="Group_11" data-name="Group 11" transform="translate(895.468 419)">
    <g id="Group_6" data-name="Group 6" transform="translate(0 87.634)">
      <path id="Path_5" data-name="Path 5" class="cls-1" d="M24.613,69.68c.452-1.507-1.658-5.878-2.11-6.481-5.727-8.44-33.158-4.974-9.947.754-18.538,2.562-14.167,8.139-3.014,6.933-3.014,1.959-5.275,3.466-7.234,6.179-1.356,1.809.452,5.124,5.426,2.562,3.014-1.658,3.014-1.959,9.043-5.426C13.46,77.517,12.405,79.175,12.1,84c-.151,2.11,4.522,1.356,7.988-4.22-1.206,9.344,3.165,13.565,4.974.151A32.385,32.385,0,0,0,24.613,69.68Z" transform="translate(0.091 -58.149)"/>
      <path id="Path_6" data-name="Path 6" class="cls-2" d="M54.472,112.42c-2.261-37.076-20.95-47.928-32.706-47.627-1.356-5.577-7.385-6.481-8.289-1.356-2.261,7.385,3.316,11,6.632,9.043,1.055-.6,1.959-4.069,1.959-5.878,5.124.6,9.194,2.261,14.921,7.687A41.585,41.585,0,0,1,47.539,91.47c6.782,21.1,1.959,40.844.754,43.256-.9,2.11,1.809,2.864,2.864,1.959C54.773,126.587,54.622,114.982,54.472,112.42Z" transform="translate(6.706 -57.181)"/>
    </g>
    <g id="Group_7" data-name="Group 7" transform="translate(73.922 35.176)">
      <path id="Path_7" data-name="Path 7" class="cls-3" d="M75.252,43.172c9.646-4.521,7.084-12.509-5.275-3.768,10.4-10.249,5.727-16.428-2.864-4.371,3.617-8.44,1.206-13.112-.452-11.3-7.234,8.742-5.426,17.182-3.617,18.086,3.165,1.809,2.562,4.371,3.617,5.426,2.713,1.507,11.153,3.014,17.031-.151C85.8,45.885,83.09,42.57,75.252,43.172Z" transform="translate(-42.631 -23.344)"/>
      <path id="Path_8" data-name="Path 8" class="cls-2" d="M68.766,33.768c-3.617-1.507-1.809,5.878-.151,6.933-5.727,5.577-21.7,30.445-19.442,71.892,1.658,31.2,6.933,26.978,6.933,25.019,0-3.768-1.055-7.536-1.658-11.3C47.365,80.942,62.286,57.732,70.123,42.66,77.809,47.182,76.453,36.933,68.766,33.768Z" transform="translate(-48.956 -18.159)"/>
    </g>
    <g id="Group_8" data-name="Group 8" transform="translate(72.775)">
      <path id="Path_9" data-name="Path 9" class="cls-1" d="M73.571,25.167a31.181,31.181,0,0,0-3.316.6c3.316-2.11,7.837-5.426,7.385-9.8-.452-3.316-7.837.754-10.55,2.864C78.846,2.56,67.994.6,62.116,12.356c.3-4.22,1.055-14.62-2.261-11.907C52.923,6.026,55.937,26.373,57.9,26.373c.452.3,2.11,6.029,3.165,6.481,5.727,2.864,12.66,8.44,19.744,4.672,2.713-1.507-2.864-5.275-7.234-6.33C90.3,29.538,91.958,22.454,73.571,25.167Zm-15.976-.3Z" transform="translate(-44.474 -0.005)"/>
      <path id="Path_10" data-name="Path 10" class="cls-2" d="M60.712,16.2c-2.11-.151-2.713,5.577.151,7.687C46.545,40.466,47.3,99.7,49.258,123.059c3.165,35.871,8.892,28.485,8.591,26.677,0,0-3.165-7.234-4.823-29.993-1.356-18.237-1.658-36.474.151-54.71,2.562-26.677,8.139-36.172,9.5-40.241C70.358,29.916,69,16.8,60.712,16.2Z" transform="translate(-48.194 8.208)"/>
    </g>
    <g id="Group_9" data-name="Group 9" transform="translate(13.187 7.378)">
      <path id="Path_11" data-name="Path 11" class="cls-2" d="M59.083,125.705C51.547,36.33,31.2,30,31.2,30c22.306,32.4,21.1,94.349,25.471,105.05.452.9,2.11,1.356,2.411,0A32.355,32.355,0,0,0,59.083,125.705Z" transform="translate(2.775 7.83)"/>
      <path id="Path_12" data-name="Path 12" class="cls-4" d="M50.47,38.51c15.976-6.179,12.359-14.77,10.249-14.77-4.069,0-7.687,3.014-10.852,5.727,12.359-28.335-8.289-36.323-8.742,4.069-1.055-3.316-2.562-10.55-4.069-15.825C31.932.68,21.08.379,27.109,18.314c2.11,6.33,5.124,13.112,9.8,17.935-35.569-18.086-39.488,3.316-.6,5.727-.9.151-1.959.452-2.864.6-41.9,11-18.689,22.758,1.356,5.577C29.219,54.034,26.2,61.72,25,70.01c-.151.9.3,1.959,1.356,1.809,5.275-.6,7.988-6.179,9.947-10.55a60.858,60.858,0,0,0,2.411-6.782c-1.356,26.375,14.77,22,7.084-1.959,4.823,6.179,12.208,8.139,12.66,5.577,1.356-7.385-8.139-10.55-12.359-13.866C64.487,50.266,67.652,39.264,50.47,38.51Z" transform="translate(-8.658 -4.9)"/>
      <path id="Path_13" data-name="Path 13" class="cls-5" d="M28.111,29.972c-.151,1.658.151,6.029,2.261,6.782,2.562.6,4.672-2.713,4.974-6.632C35.5,23.492,28.865,23.944,28.111,29.972Z" transform="translate(1.191 5.446)"/>
      <path id="Path_14" data-name="Path 14" class="cls-6" d="M55.691,82.034c.3-.452,3.316-28.184-25.622-27.732-1.658,0-1.809.6-.6,1.658,2.864,2.562,4.069,7.988,5.426,11.153C43.031,86.254,51.923,82.034,55.691,82.034Z" transform="translate(1.494 20.153)"/>
      <path id="Path_15" data-name="Path 15" class="cls-7" d="M31.812,27.043c-2.713-1.206-3.617,6.481-1.658,6.632C32.264,33.675,34.073,27.947,31.812,27.043Z" transform="translate(1.711 6.265)"/>
    </g>
    <g id="Group_10" data-name="Group 10" transform="translate(81.033 67.748)">
      <path id="Path_16" data-name="Path 16" class="cls-2" d="M76.924,57.267c-4.069,3.165-8.139,5.727-11.756,9.646a37.414,37.414,0,0,0-7.084,11.454A63.131,63.131,0,0,0,54.618,96c-.452,4.069-.6,8.289-.754,12.359-.151,2.411-.151,4.974-.151,7.385,0,2.864-.3,6.029.754,8.591a1.1,1.1,0,0,0,2.11,0,22.245,22.245,0,0,0,.754-7.084c.151-2.562.151-5.124.151-7.687.151-4.22.3-8.44.6-12.66a68.761,68.761,0,0,1,3.165-17.483,33.1,33.1,0,0,1,6.179-10.7,112.909,112.909,0,0,1,10.249-10.55C78.582,57.568,77.527,56.664,76.924,57.267Z" transform="translate(-53.674 -38.812)"/>
      <path id="Path_17" data-name="Path 17" class="cls-4" d="M86.93,64.917c17.483-.9,12.962-11.3-2.562-6.481,13.866-12.962.6-21.1-7.385-2.864-1.507-17.332-7.687-10.249-4.22,2.562-9.646-5.878-16.88-.9-4.522,4.371C54.827,67.932,60.4,75.92,71.556,66.877c-10.4,26.375,3.768,21.1,4.069,0,6.33,30.143,19.895,14.921,4.823.6a3.547,3.547,0,0,0,1.206.3C105.468,79.688,100.645,69.137,86.93,64.917Z" transform="translate(-50.265 -44.955)"/>
      <path id="Path_18" data-name="Path 18" class="cls-5" d="M71.254,54.231c-6.33,1.356-1.809,7.385,2.562,6.33C77.584,59.355,75.022,53.327,71.254,54.231Z" transform="translate(-46.345 -40.297)"/>
      <path id="Path_19" data-name="Path 19" class="cls-7" d="M69.815,55.762c-1.206,1.507,1.055,3.316,2.411,2.562C73.583,57.722,71.925,53.2,69.815,55.762Z" transform="translate(-45.661 -39.87)"/>
    </g>
    <path id="Path_20" data-name="Path 20" class="cls-6" d="M54.78,85.559C31.569,56.772,18,95.355,3.235,100.178c-1.206.452-1.959,1.356-.452,1.809C43.024,112.989,43.024,88.573,54.78,85.559Z" transform="translate(1.123 38.022)"/>
    <path id="Path_21" data-name="Path 21" class="cls-6" d="M102.574,91.644c-.3-7.385-12.811-16.88-24.416-17.332-15.976-.6-19.744,6.632-22.758,12.057,5.878-.3,5.124,3.316,18.84,6.179C84.79,94.809,93.079,87.424,102.574,91.644Z" transform="translate(28.235 37.664)"/>
    <path id="Path_22" data-name="Path 22" class="cls-8" d="M52.015,98.607c-7.988,0-16.127-.151-24.115-.9,1.356,38.131,40.844,49.134,60.89,22.306,5.577-7.536,5.727-15.825,5.727-22.909-4.22.3-8.591.6-12.811.754C71.909,98.306,61.962,98.607,52.015,98.607Z" transform="translate(14.288 49.239)"/>
    <path id="Path_23" data-name="Path 23" class="cls-8" d="M52.919,98.326c9.646-.151,19.292-.6,28.938-1.055,4.371-.3,8.591-.452,12.962-.754,0-1.206.151-2.411.151-3.617-23.21,1.507-58.177.6-66.918,1.055-.151,1.507-.151,3.014-.151,4.371C36.34,98.326,44.63,98.477,52.919,98.326Z" transform="translate(14.288 47.109)"/>
    <path id="Path_24" data-name="Path 24" class="cls-9" d="M81.806,96.1c-9.646.6-19.292.9-28.938,1.055-8.289.151-16.579,0-24.868,0v1.356c7.988.754,15.976.9,24.115.9,9.947,0,19.895-.3,29.691-.754,4.22-.151,8.591-.452,12.811-.754V95.2C90.4,95.5,86.026,95.8,81.806,96.1Z" transform="translate(14.338 48.275)"/>
  </g>
</svg>
